<svg xmlns="http://www.w3.org/2000/svg" width="40" height="40" viewBox="0 0 40 40">
  <defs>
    <style>
      .cls-1 {
        fill: #ddd;
      }
    </style>
  </defs>
  <g id="组_16479" data-name="组 16479" transform="translate(-206.884 -411.242)">
    <g id="组_16478" data-name="组 16478" transform="translate(206.884 411.242)">
      <path id="路径_21928" data-name="路径 21928" class="cls-1" d="M231.325,437.291a.471.471,0,0,1,0,.691c-1.273,1.273-3.727,1.384-4.441,1.384s-3.17-.111-4.441-1.384a.471.471,0,0,1,0-.691.485.485,0,0,1,.67,0c.8.826,2.545,1.094,3.773,1.094a5.84,5.84,0,0,0,3.773-1.094.485.485,0,0,1,.67,0Zm-6.852-4.04a2,2,0,1,1-1.987-2.008,1.991,1.991,0,0,1,1.987,2.008Zm8.816,0a2,2,0,1,1-.586-1.423,2,2,0,0,1,.586,1.423Zm5.6-2.678a2.667,2.667,0,0,0-2.678-2.656,2.7,2.7,0,0,0-1.92.8,13.05,13.05,0,0,0-6.942-2.143l1.406-6.317,4.465,1a1.991,1.991,0,0,0,1.987,1.987,2.009,2.009,0,1,0-1.786-2.9l-4.933-1.094a.474.474,0,0,0-.559.357l-1.54,6.964a13.15,13.15,0,0,0-6.9,2.166,2.673,2.673,0,1,0-3.1,4.24,5.788,5.788,0,0,0-.134,1.25c0,4.241,4.777,7.679,10.647,7.679,5.893,0,10.67-3.437,10.67-7.679a4.865,4.865,0,0,0-.156-1.273,2.683,2.683,0,0,0,1.473-2.389Zm7.991.67a20,20,0,1,1-20-20,20,20,0,0,1,20,20Zm0,0" transform="translate(-206.884 -411.242)"/>
    </g>
  </g>
</svg>
