<svg xmlns="http://www.w3.org/2000/svg" width="40" height="40" viewBox="0 0 40 40">
  <defs>
    <style>
      .cls-1 {
        fill: #ddd;
      }

      .cls-2 {
        fill: #444647;
      }
    </style>
  </defs>
  <g id="组_16482" data-name="组 16482" transform="translate(758.982 -729.298)">
    <circle id="椭圆_3488" data-name="椭圆 3488" class="cls-1" cx="20" cy="20" r="20" transform="translate(-758.982 729.298)"/>
    <path id="路径_21930" data-name="路径 21930" class="cls-2" d="M-483.521,1032.114l-1.811,1.735a.532.532,0,0,0-.2.506v12.774a.519.519,0,0,0,.2.505l1.773,1.735v.385h-8.9v-.37l1.833-1.781c.181-.181.181-.234.181-.505v-10.329l-5.1,12.947h-.687l-5.938-12.947v8.677a1.194,1.194,0,0,0,.332,1l2.384,2.89v.385h-6.775v-.385l2.384-2.89a1.155,1.155,0,0,0,.309-1v-10.035a.862.862,0,0,0-.287-.74l-2.12-2.558v-.385h6.587l5.085,11.167,4.474-11.159h6.278Z" transform="translate(-243.751 -291.431)"/>
  </g>
</svg>
