<svg xmlns="http://www.w3.org/2000/svg" width="40" height="40" viewBox="0 0 40 40">
  <defs>
    <style>
      .cls-1 {
        fill: #ddd;
      }

      .cls-2 {
        fill: #444647;
      }
    </style>
  </defs>
  <g id="facebook1" transform="translate(-744 -811)">
    <circle id="椭圆_125" data-name="椭圆 125" class="cls-1" cx="20" cy="20" r="20" transform="translate(744 811)"/>
    <path id="facebook" class="cls-2" d="M1026.918,5682h-16.873a2.051,2.051,0,0,0-2.045,2.045v16.872a2.051,2.051,0,0,0,2.045,2.046h9.155v-8.122h-2.733v-3.165h2.733v-2.333a3.81,3.81,0,0,1,4.069-4.179,22.413,22.413,0,0,1,2.443.125v2.828h-1.673c-1.32,0-1.571.621-1.571,1.54v2.019h3.134l-.408,3.165h-2.725v8.122h4.45a2.051,2.051,0,0,0,2.045-2.046v-16.872A2.051,2.051,0,0,0,1026.918,5682Z" transform="translate(-254 -4861.481)"/>
  </g>
</svg>
