<svg xmlns="http://www.w3.org/2000/svg" width="22" height="18.534" viewBox="0 0 22 18.534">
  <defs>
    <style>
      .cls-1 {
        fill: #fff;
      }
    </style>
  </defs>
  <path id="telegram" class="cls-1" d="M17.568,18.534a1.8,1.8,0,0,1-1-.407c-1.717-1.242-4.847-3.572-4.874-3.592L8.813,17.249a1.5,1.5,0,0,1-.561.126.616.616,0,0,1-.638-.446c-.259-.755-1.982-6.1-2-6.147L.583,9.186C.578,9.184.055,8.972,0,8.6c-.031-.221.111-.454.42-.691C1.287,7.488,20.092.3,20.239.246A2.881,2.881,0,0,1,21.223,0,.724.724,0,0,1,21.6.086c.644.477.323,1.664.319,1.676L18.641,17.329C18.639,17.341,18.43,18.534,17.568,18.534Zm.424-15.217a1.583,1.583,0,0,0-.31.042L6.336,10.384l1.837,5.588.4-3.752c.082-.074,9.179-8.317,9.508-8.621.083-.1.114-.171.093-.218S18.093,3.317,17.992,3.317Z"/>
</svg>
