<svg xmlns="http://www.w3.org/2000/svg" width="40" height="40" viewBox="0 0 40 40">
  <defs>
    <style>
      .cls-1 {
        fill: #ddd;
      }

      .cls-2 {
        fill: #444647;
      }
    </style>
  </defs>
  <g id="telegram1" transform="translate(-887 -812)">
    <g id="组_3001" data-name="组 3001" transform="translate(887 812)">
      <circle id="椭圆_127" data-name="椭圆 127" class="cls-1" cx="20" cy="20" r="20"/>
      <path id="telegram" class="cls-2" d="M19.871,20.963a2.03,2.03,0,0,1-1.136-.46c-1.943-1.4-5.483-4.04-5.513-4.062L9.969,19.51a1.7,1.7,0,0,1-.634.143.7.7,0,0,1-.721-.5c-.292-.854-2.241-6.9-2.26-6.953L.66,10.391c-.006,0-.6-.243-.655-.663-.035-.25.125-.513.475-.782C1.456,8.469,22.726.336,22.892.278A3.259,3.259,0,0,1,24,0a.819.819,0,0,1,.424.1c.729.539.365,1.882.361,1.9L21.085,19.6C21.082,19.614,20.846,20.963,19.871,20.963ZM20.35,3.752A1.79,1.79,0,0,0,20,3.8L7.167,11.745l2.078,6.321L9.7,13.822c.093-.084,10.383-9.407,10.755-9.751.094-.111.129-.194.1-.247S20.465,3.752,20.35,3.752Z" transform="translate(6.095 9.482)"/>
    </g>
  </g>
</svg>
