<svg xmlns="http://www.w3.org/2000/svg" width="1056.362" height="258.006" viewBox="0 0 1056.362 258.006">
  <defs>
    <style>
      .cls-1, .cls-2, .cls-3 {
        fill: none;
      }

      .cls-1, .cls-2 {
        stroke: #36abfa;
      }

      .cls-1 {
        stroke-width: 4px;
      }

      .cls-2 {
        stroke-width: 2px;
        stroke-dasharray: 8 4;
      }

      .cls-4, .cls-5 {
        stroke: none;
      }

      .cls-5 {
        fill: #36abfa;
      }
    </style>
  </defs>
  <g id="组_16476" data-name="组 16476" transform="translate(-431.16 -1311.494)">
    <line id="形状_982" data-name="形状 982" class="cls-1" x2="228.35" transform="translate(454.15 1441.5)"/>
    <line id="形状_982-2" data-name="形状 982" class="cls-1" x2="229.37" transform="translate(705.13 1441.5)"/>
    <line id="形状_982-3" data-name="形状 982" class="cls-1" x2="229" transform="translate(954.5 1441.5)"/>
    <line id="形状_982-4" data-name="形状 982" class="cls-1" x2="228" transform="translate(1207.5 1441.5)"/>
    <path id="形状_1" data-name="形状 1" class="cls-2" d="M827.52,4905v-48.534s.192-8.71-9.921-8.71H797.758s-8.471,2.436-8.68-11.2c-.21-9.979,0-43.555,0-43.555" transform="translate(156 -3335.5)"/>
    <g id="椭圆_979" data-name="椭圆 979" class="cls-3" transform="translate(-12 -3334.97)">
      <path class="cls-4" d="M944.09,4776.941a13,13,0,1,1,13,12.969A12.985,12.985,0,0,1,944.09,4776.941Zm-249.97,0a13,13,0,1,1,13,12.969A12.985,12.985,0,0,1,694.12,4776.941Zm-250.96,0a13,13,0,1,1,13,12.969A12.985,12.985,0,0,1,443.16,4776.941Z"/>
      <path class="cls-5" d="M 957.0906372070313 4785.91015625 C 962.0531005859375 4785.91015625 966.0902709960938 4781.88671875 966.0902709960938 4776.94091796875 C 966.0902709960938 4771.99462890625 962.0531005859375 4767.97021484375 957.0906372070313 4767.97021484375 C 952.1276245117188 4767.97021484375 948.0897827148438 4771.99462890625 948.0897827148438 4776.94091796875 C 948.0897827148438 4781.88671875 952.1276245117188 4785.91015625 957.0906372070313 4785.91015625 M 707.1203002929688 4785.91015625 C 712.082763671875 4785.91015625 716.1199340820313 4781.88671875 716.1199340820313 4776.94091796875 C 716.1199340820313 4771.99462890625 712.082763671875 4767.97021484375 707.1203002929688 4767.97021484375 C 702.1572875976563 4767.97021484375 698.11962890625 4771.99462890625 698.11962890625 4776.94091796875 C 698.11962890625 4781.88671875 702.1572875976563 4785.91015625 707.1203002929688 4785.91015625 M 456.1596069335938 4785.91015625 C 461.1226196289063 4785.91015625 465.1604614257813 4781.88671875 465.1604614257813 4776.94091796875 C 465.1604614257813 4771.99462890625 461.1226196289063 4767.97021484375 456.1596069335938 4767.97021484375 C 451.1971130371094 4767.97021484375 447.1599426269531 4771.99462890625 447.1599426269531 4776.94091796875 C 447.1599426269531 4781.88671875 451.1971130371094 4785.91015625 456.1596069335938 4785.91015625 M 957.0906372070313 4789.91015625 C 949.9104614257813 4789.91015625 944.0897827148438 4784.10302734375 944.0897827148438 4776.94091796875 C 944.0897827148438 4769.7763671875 949.9104614257813 4763.97021484375 957.0906372070313 4763.97021484375 C 964.2695922851563 4763.97021484375 970.0902709960938 4769.7763671875 970.0902709960938 4776.94091796875 C 970.0902709960938 4784.10302734375 964.2695922851563 4789.91015625 957.0906372070313 4789.91015625 Z M 707.1203002929688 4789.91015625 C 699.9401245117188 4789.91015625 694.11962890625 4784.10302734375 694.11962890625 4776.94091796875 C 694.11962890625 4769.7763671875 699.9401245117188 4763.97021484375 707.1203002929688 4763.97021484375 C 714.2994384765625 4763.97021484375 720.1199340820313 4769.7763671875 720.1199340820313 4776.94091796875 C 720.1199340820313 4784.10302734375 714.2994384765625 4789.91015625 707.1203002929688 4789.91015625 Z M 456.1596069335938 4789.91015625 C 448.9806213378906 4789.91015625 443.1599426269531 4784.10302734375 443.1599426269531 4776.94091796875 C 443.1599426269531 4769.7763671875 448.9806213378906 4763.97021484375 456.1596069335938 4763.97021484375 C 463.3397827148438 4763.97021484375 469.1604614257813 4769.7763671875 469.1604614257813 4776.94091796875 C 469.1604614257813 4784.10302734375 463.3397827148438 4789.91015625 456.1596069335938 4789.91015625 Z"/>
    </g>
    <g id="椭圆_979-2" data-name="椭圆 979" class="cls-3" transform="translate(494 -3335)">
      <path class="cls-4" d="M689.12,4776.941a13,13,0,1,1,13,12.969A12.985,12.985,0,0,1,689.12,4776.941Zm250.97-1a13,13,0,1,1,13,12.969A12.985,12.985,0,0,1,940.09,4775.941Z"/>
      <path class="cls-5" d="M 702.1195678710938 4785.91015625 C 707.0826416015625 4785.91015625 711.1204223632813 4781.88671875 711.1204223632813 4776.94091796875 C 711.1204223632813 4771.99462890625 707.0826416015625 4767.97021484375 702.1195678710938 4767.97021484375 C 697.1572265625 4767.97021484375 693.1199951171875 4771.99462890625 693.1199951171875 4776.94091796875 C 693.1199951171875 4781.88671875 697.1572265625 4785.91015625 702.1195678710938 4785.91015625 M 953.0900268554688 4784.91015625 C 958.0523681640625 4784.91015625 962.089599609375 4780.88671875 962.089599609375 4775.94091796875 C 962.089599609375 4770.994140625 958.0523681640625 4766.9697265625 953.0900268554688 4766.9697265625 C 948.1276245117188 4766.9697265625 944.0903930664063 4770.994140625 944.0903930664063 4775.94091796875 C 944.0903930664063 4780.88671875 948.1276245117188 4784.91015625 953.0900268554688 4784.91015625 M 702.1195678710938 4789.91015625 C 694.940673828125 4789.91015625 689.1199951171875 4784.10302734375 689.1199951171875 4776.94091796875 C 689.1199951171875 4769.7763671875 694.940673828125 4763.97021484375 702.1195678710938 4763.97021484375 C 709.2998657226563 4763.97021484375 715.1204223632813 4769.7763671875 715.1204223632813 4776.94091796875 C 715.1204223632813 4784.10302734375 709.2998657226563 4789.91015625 702.1195678710938 4789.91015625 Z M 953.0900268554688 4788.91015625 C 945.9097290039063 4788.91015625 940.0903930664063 4783.10400390625 940.0903930664063 4775.94091796875 C 940.0903930664063 4768.77734375 945.9097290039063 4762.9697265625 953.0900268554688 4762.9697265625 C 960.270263671875 4762.9697265625 966.089599609375 4768.77734375 966.089599609375 4775.94091796875 C 966.089599609375 4783.10400390625 960.270263671875 4788.91015625 953.0900268554688 4788.91015625 Z"/>
    </g>
    <path id="形状_1-2" data-name="形状 1" class="cls-2" d="M622.988,4759v-48.394s.195-8.686-10.041-8.686H592.866s-8.574,2.429-8.786-11.168c-.212-9.951,0-43.43,0-43.43" transform="translate(72 -3335.822)"/>
    <path id="形状_1-3" data-name="形状 1" class="cls-2" d="M622.988,4759v-48.394s.195-8.686-10.041-8.686H592.866s-8.574,2.429-8.786-11.168c-.212-9.951,0-43.43,0-43.43" transform="translate(573 -3335.822)"/>
    <path id="形状_1-4" data-name="形状 1" class="cls-2" d="M493.52,4905v-48.534s.193-8.71-9.921-8.71H463.758s-8.471,2.436-8.681-11.2c-.209-9.979,0-43.555,0-43.555" transform="translate(-10.824 -3335.5)"/>
    <path id="形状_1-5" data-name="形状 1" class="cls-2" d="M827.52,4905v-48.534s.192-8.71-9.921-8.71H797.758s-8.471,2.436-8.68-11.2c-.21-9.979,0-43.555,0-43.555" transform="translate(659 -3335.5)"/>
  </g>
</svg>
