<svg xmlns="http://www.w3.org/2000/svg" width="40" height="40" viewBox="0 0 40 40">
  <defs>
    <style>
      .cls-1 {
        fill: #ddd;
      }

      .cls-2 {
        fill: #444647;
      }
    </style>
  </defs>
  <g id="twitter1" transform="translate(-1175 -749)">
    <g id="组_2961" data-name="组 2961" transform="translate(1175 749)">
      <circle id="椭圆_123" data-name="椭圆 123" class="cls-1" cx="20" cy="20" r="20"/>
    </g>
    <g id="组_2981" data-name="组 2981" transform="translate(1182.521 758.638)">
      <path id="路径_2281" data-name="路径 2281" class="cls-2" d="M25.718,2.492a9.792,9.792,0,0,1-3.023.8A5.232,5.232,0,0,0,24.975.371a10.633,10.633,0,0,1-3.341,1.273A5.316,5.316,0,0,0,17.764,0a5.262,5.262,0,0,0-5.25,5.25,9.467,9.467,0,0,0,.106,1.22A14.927,14.927,0,0,1,1.8.954a5.123,5.123,0,0,0-.742,2.651,5.422,5.422,0,0,0,2.333,4.4,4.994,4.994,0,0,1-2.333-.689v.106A5.233,5.233,0,0,0,5.3,12.567a6.582,6.582,0,0,1-1.432.159,6.5,6.5,0,0,1-1.008-.106,5.325,5.325,0,0,0,4.931,3.659,10.175,10.175,0,0,1-6.522,2.28A10.218,10.218,0,0,1,0,18.506a15.022,15.022,0,0,0,8.113,2.386A14.885,14.885,0,0,0,23.119,5.886V5.2a13.988,13.988,0,0,0,2.6-2.7Zm0,0"/>
    </g>
  </g>
</svg>
